<svg height="512pt" viewBox="0 0 512 512.00007" width="512pt" xmlns="http://www.w3.org/2000/svg"><path d="m512 256c0 8.296875-.398438 16.488281-1.171875 24.574219-.164063 1.769531-.34375 3.523437-.550781 5.277343-1.035156 8.882813-2.519532 17.628907-4.441406 26.21875-4.003907 17.929688-9.894532 35.148438-17.449219 51.449219-19.46875 42.027344-50.011719 77.886719-87.886719 103.820313-4.328125 2.96875-8.757812 5.8125-13.269531 8.496094-38.371094 22.976562-83.257813 36.164062-131.230469 36.164062-141.386719 0-256-114.613281-256-256 0-8.933594.460938-17.761719 1.347656-26.457031 3.238282-31.523438 12.195313-61.355469 25.832032-88.441407 1.347656-2.683593 2.734374-5.339843 4.179687-7.960937 31.917969-58.261719 85.855469-102.753906 150.621094-122.273437 11.953125-3.605469 24.28125-6.363282 36.90625-8.191407 10.53125-1.535156 21.273437-2.425781 32.179687-2.6328122 1.640625-.03125 3.28125-.0429688 4.933594-.0429688 15.851562 0 31.359375 1.441406 46.402344 4.199219.242187.042969.480468.085937.722656.136719 1.160156.21875 2.320312.4375 3.46875.667968 8.015625 1.601563 15.902344 3.585938 23.636719 5.925782 8.816406 2.664062 17.449219 5.800781 25.839843 9.371093 5.851563 2.488281 11.585938 5.183594 17.199219 8.089844 4.640625 2.390625 9.195313 4.921875 13.667969 7.597656 1.722656 1.023438 3.4375 2.066407 5.128906 3.152344 12.246094 7.679687 23.792969 16.375 34.511719 25.976563 5.207031 4.640624 10.210937 9.5 15.007813 14.554687 9.882812 10.398437 18.902343 21.621094 26.9375 33.5625 3.6875 5.476563 7.175781 11.109375 10.4375 16.875.269531.480469.53125.953125.804687 1.433594 1.640625 2.957031 3.238281 5.945312 4.773437 8.976562 5.351563 10.5625 9.992188 21.554688 13.847657 32.902344 1.847656 5.433594 3.519531 10.941406 5.003906 16.53125.5625 2.121094 1.105469 4.25 1.609375 6.402344 1.492188 6.21875 2.757812 12.53125 3.769531 18.925781 1.820313 11.316406 2.886719 22.882812 3.15625 34.636719.054688 2.015625.074219 4.042969.074219 6.082031zm0 0" fill="#a1edda"/><g fill="#6ccfcb"><path d="m251.066406.0429688-169.816406 169.8164062-14.773438-14.777344 152.410157-152.40625c10.53125-1.535156 21.273437-2.425781 32.179687-2.6328122zm0 0"/><path d="m330.230469 10.929688-203.953125 203.953124-14.777344-14.773437 195.09375-195.105469c8.015625 1.601563 15.902344 3.585938 23.636719 5.925782zm0 0"/><path d="m392.066406 39.140625-220.765625 220.765625-14.773437-14.773438 216.742187-216.742187c4.640625 2.390625 9.195313 4.921875 13.667969 7.597656 1.722656 1.023438 3.4375 2.066407 5.128906 3.152344zm0 0"/><path d="m441.585938 79.671875-225.261719 225.261719-14.773438-14.777344 225.027344-225.039062c5.207031 4.640624 10.210937 9.5 15.007813 14.554687zm0 0"/><path d="m479.765625 131.542969-218.414063 218.414062-14.777343-14.773437 221.949219-221.949219c3.6875 5.476563 7.175781 11.109375 10.4375 16.875.269531.480469.53125.953125.804687 1.433594zm0 0"/><path d="m505 196.355469-198.625 198.625-14.773438-14.773438 206.785157-206.785156c1.847656 5.433594 3.519531 10.941406 5.003906 16.53125.5625 2.121094 1.105469 4.25 1.609375 6.402344zm0 0"/><path d="m512 256c0 8.296875-.398438 16.488281-1.171875 24.574219l-159.429687 159.433593-14.773438-14.777343 175.300781-175.3125c.054688 2.015625.074219 4.042969.074219 6.082031zm0 0"/><path d="m488.386719 363.519531c-19.46875 42.027344-50.011719 77.886719-87.886719 103.820313-4.328125 2.96875-8.757812 5.8125-13.269531 8.496094l-5.582031-5.578126zm0 0"/></g><path d="m400.5 467.339844c-41.117188 28.183594-90.886719 44.660156-144.5 44.660156-48.335938 0-93.539062-13.394531-132.105469-36.675781-8.570312-5.171875-16.804687-10.824219-24.671875-16.9375-60.375-46.820313-99.222656-120.070313-99.222656-202.386719 0-8.933594.460938-17.761719 1.347656-26.457031 3.238282-31.523438 12.195313-61.355469 25.832032-88.441407 1.347656-2.683593 2.734374-5.339843 4.179687-7.960937 9.714844-17.742187 21.46875-34.199219 34.960937-49.066406 30.804688-33.972657 70.613282-59.632813 115.660157-73.207031l178.5 372.871093zm0 0" fill="#ffd073"/><path d="m99.222656 458.386719c-60.375-46.820313-99.222656-120.070313-99.222656-202.386719 0-8.933594.460938-17.761719 1.347656-26.457031 3.238282-31.523438 12.195313-61.355469 25.832032-88.441407 1.347656-2.683593 2.734374-5.339843 4.179687-7.960937 9.714844-17.742187 21.46875-34.199219 34.960937-49.066406-2.046874 71.898437 12.058594 193.386719 114.6875 277.722656 81.898438 67.300781 6.761719 90.046875-81.785156 96.589844zm0 0" fill="#ff9c40"/><path d="m400.5 467.339844c-41.117188 28.183594-90.886719 44.660156-144.5 44.660156-48.335938 0-93.539062-13.394531-132.105469-36.675781l236.585938-91.585938zm0 0" fill="#f76cae"/><path d="m332.253906 177.800781 58.683594 25.027344c13.726562 13.726563 13.726562 35.976563 0 49.699219l-90.015625 90.019531-66.707031-66.707031 123.554687-72.523438" fill="#f4c0a3"/><path d="m271.515625 180.359375 58.683594 25.023437c13.722656 13.726563 13.722656 35.976563 0 49.703126l-90.019531 90.015624-66.707032-66.707031 123.558594-72.523437" fill="#eb927a"/><path d="m324.660156 346.78125c-3.269531 9.65625-8.660156 18.535156-16.183594 26.058594-7.191406 7.179687-18.171874 12.246094-31.128906 15.308594-38.128906 8.964843-64.167968 44.597656-61.941406 83.738281.6875 12.402343.15625 24.699219-1.589844 36.65625-107.84375-17.890625-192.90625-103.164063-210.472656-211.113281-.492188-2.976563-.929688-5.976563-1.316406-8.996094 6.886718-.722656 13.867187-1.035156 20.90625-.949219 39.761718.480469 73.613281-27.609375 81.023437-66.6875 2.851563-15.109375 8.253907-28.023437 16.351563-36.132813 23.292968-23.28125 59.96875-26.132812 90.382812-9.675781 9.5 5.152344 11.015625 18.023438 3.34375 25.644531-.039062.039063-.09375.09375-.132812.132813-19.917969 19.894531-22.789063 49.289063-6.449219 65.640625 13.835937 13.835938 37 13.917969 55.882813 1.546875l5.097656 16.898437c1.695312 3.800782 4.085937 7.3125 7.199218 10.4375 6.1875 6.175782 14.148438 9.582032 22.246094 10.21875 20.105469 1.546876 33.324219 22.214844 26.78125 41.273438zm0 0" fill="#1a3b7a"/><path d="m307.867188 341.023438c-2.496094 7.378906-6.507813 13.824218-11.929688 19.257812-4.421875 4.429688-12.476562 8.191406-22.664062 10.59375-46.53125 10.941406-78.316407 53.84375-75.589844 102.003906.617187 10.980469.179687 21.753906-1.285156 32.140625-5.296876-1.265625-10.523438-2.683593-15.683594-4.285156-64.949219-19.945313-118.886719-65.042969-150.453125-123.921875-11.746094-21.890625-20.398438-45.695312-25.371094-70.8125 5.851563-.578125 11.816406-.835938 17.847656-.765625 48.125.574219 89.628907-33.539063 98.667969-81.136719 2.300781-12.246094 6.363281-21.792968 11.453125-26.882812 16.644531-16.636719 43.40625-19.625 67.238281-7.722656-25.621094 26.792968-28.066406 66.589843-5.191406 89.453124 14.660156 14.671876 36.339844 19.238282 57.414062 13.34375 2.59375 5.769532 6.230469 11.003907 10.765626 15.539063 8.941406 8.941406 20.8125 14.398437 33.425781 15.371094 3.832031.300781 6.445312 2.171875 7.980469 3.707031 3.710937 3.71875 5.046874 9.269531 3.375 14.117188zm0 0" fill="#304b82"/><path d="m282.550781 348.945312c0 19.148438-61.953125 8.167969-87.824219 55.148438-21.554687 39.152344-9.550781 69.789062-14.011718 96.640625-64.949219-19.945313-118.886719-65.042969-150.453125-123.921875 12.453125-13.886719 33.707031-32.070312 61.65625-35.359375 33.074219-3.886719 35.925781-41.816406 34.847656-63.175781-.613281-12.195313 13.3125-19.695313 22.957031-12.214844 11.304688 8.757812 20.554688 23.992188 26.929688 21.566406 10.519531-3.992187 56.882812 18.484375 56.882812 18.484375s9.476563 27.199219 27.207032 27.199219c17.722656 0 21.808593 7.460938 21.808593 15.632812zm0 0" fill="#f2efea"/><path d="m218.898438 315.363281-31.726563-31.726562c-3.546875-3.546875-3.472656-9.320313.160156-12.777344l9.09375-8.652344 4.257813-4.046875 20.140625-19.160156 4.253906-4.050781 11.8125-11.230469 8.371094-7.90625 4.269531-4.035156 20.214844-19.101563 4.269531-4.039062 23.738281-22.421875 4.269532-4.039063 23.734374-22.421875 4.269532-4.039062 23.738281-22.421875 15.9375-7.746094 12.066406-18.714844 4.269531-4.039062 41.542969-4.816407 9.269531 21.015626c-.988281.585937-1.902343 1.320312-2.691406 2.15625l-14.464844 15.300781-4.039062 4.269531-22.421875 23.738281-4.039063 4.265625-22.433593 23.730469-4.035157 4.269531-22.433593 23.730469-4.035157 4.265625-22.425781 23.738281-4.035156 4.269531-19.113281 20.207032-4.035156 4.269531-19.101563 20.214844-4.039063 4.269531-6.898437 7.300781-12.234375 12.867188-4.046875 4.261719-8.648437 9.089843c-3.460938 3.628907-9.234376 3.703125-12.78125.15625zm0 0" fill="#2f373b"/><path d="m104.246094 451.121094-52.847656-52.847656c-4.195313-4.195313-4.195313-11 0-15.195313l15.382812-15.382813c4.195312-4.195312 11-4.195312 15.195312 0l52.847657 52.847657c4.199219 4.195312 4.199219 11 0 15.199219l-15.378907 15.378906c-4.195312 4.195312-11 4.195312-15.199218 0zm0 0" fill="#d8d4ce"/><path d="m199.601562 341.15625-38.238281-38.238281c-3.566406-3.566407-3.566406-9.347657 0-12.914063l2.375-2.375c3.566407-3.566406 9.347657-3.566406 12.914063 0l38.238281 38.238282c3.566406 3.566406 3.566406 9.347656 0 12.914062l-2.375 2.375c-3.566406 3.566406-9.347656 3.566406-12.914063 0zm0 0" fill="#d8d4ce"/><path d="m175.796875 364.960938-38.238281-38.238282c-3.566406-3.566406-3.566406-9.347656 0-12.914062l2.375-2.375c3.566406-3.566406 9.347656-3.566406 12.914062 0l38.238282 38.238281c3.566406 3.566406 3.566406 9.347656 0 12.914063l-2.375 2.375c-3.566407 3.566406-9.347657 3.566406-12.914063 0zm0 0" fill="#d8d4ce"/><path d="m140.34375 400.414062-38.234375-38.238281c-3.566406-3.566406-3.566406-9.347656 0-12.914062l2.375-2.375c3.5625-3.566407 9.347656-3.566407 12.910156 0l38.238281 38.238281c3.566407 3.566406 3.566407 9.347656 0 12.914062l-2.375 2.375c-3.566406 3.566407-9.347656 3.566407-12.914062 0zm0 0" fill="#d8d4ce"/><path d="m415.65625 120.71875-33.886719-33.886719 4.269531-4.039062 33.652344 33.65625zm0 0" fill="#ffd073"/><path d="m362.726562 176.71875-36.96875-36.964844 4.269532-4.039062 36.734375 36.734375zm0 0" fill="#ffd073"/><path d="m336.253906 204.71875-38.503906-38.503906 4.269531-4.039063 38.273438 38.273438zm0 0" fill="#ffd073"/><path d="m309.792969 232.722656-40.046875-40.046875 4.269531-4.039062 39.8125 39.816406zm0 0" fill="#ffd073"/><path d="m286.648438 257.199219-41.386719-41.386719 4.269531-4.035156 41.152344 41.152344zm0 0" fill="#ffd073"/><path d="m263.507812 281.683594-42.679687-42.679688 4.25-4.054687 42.464844 42.464843zm0 0" fill="#ffd073"/><path d="m240.328125 306.109375-43.902344-43.902344 4.257813-4.042969 43.6875 43.6875zm0 0" fill="#ffd073"/><path d="m415.136719 82.128906-347.363281 347.367188c-1.339844-1.441406-2.65625-2.894532-3.929688-4.367188l347.144531-347.148437zm0 0" fill="#fff"/><path d="m405.722656 72.726562-346.738281 346.738282c-1.265625-1.515625-2.507813-3.050782-3.71875-4.597656l346.300781-346.300782zm0 0" fill="#fff"/><path d="m424.550781 91.554688-347.5 347.5c-1.398437-1.367188-2.789062-2.757813-4.160156-4.15625l347.503906-347.503907zm0 0" fill="#fff"/><path d="m433.96875 100.957031-347.160156 347.15625c-1.472656-1.292969-2.933594-2.609375-4.375-3.9375l347.375-347.375zm0 0" fill="#fff"/><path d="m353.761719 113.292969 11.898437-10.363281-1.839844-9.464844c-1.121093-5.777344 2.023438-11.539063 7.488282-13.722656l107.503906-42.929688c8.988281-3.589844 19.25-1.480469 26.09375 5.363281 6.757812 6.757813 8.90625 16.859375 5.484375 25.785157l-6.679687 17.40625c-.613282 1.601562-1.792969 2.917968-3.316407 3.699218-3.980469 2.050782-8.832031-.128906-9.941406-4.464844-.675781-2.628906-3.175781-4.363281-5.871094-4.074218l-1.007812.109375c-2.382813.253906-4.320313 2.027343-4.777344 4.378906l-11.140625 56.941406c-2.652344 13.550781-16.203125 22.042969-29.550781 18.523438l-50.457031-13.304688zm0 0" fill="#1a3b7a"/><path d="m443.507812 144.078125c-1.234374 0-2.472656-.164063-3.683593-.484375l-18.574219-4.894531c-17.058594-4.5-32.617188-13.441407-45.09375-25.914063-2.671875-2.675781-2.523438-7.058594.328125-9.542968 1.757813-1.53125 2.566406-3.882813 2.121094-6.171876l-1.828125-9.425781c-.328125-1.695312.597656-3.394531 2.203125-4.035156l99.371093-39.683594c1.734376-.691406 3.5625-1.042969 5.425782-1.042969 3.902344 0 7.570312 1.511719 10.335937 4.261719 4.1875 4.167969 5.300781 10.535157 3.183594 16.050781l-2.117187 5.515626c-1.132813 2.957031-4.632813 4.050781-7.363282 2.449218-1.910156-1.121094-4.125-1.753906-6.457031-1.753906-.453125 0-.914063.023438-1.363281.074219l-.933594.097656c-5.605469.601563-10.097656 4.71875-11.179688 10.25l-10.296874 52.632813c-1.316407 6.730468-7.238282 11.617187-14.078126 11.617187zm0 0" fill="#304b82"/><path d="m376.839844 63.960938-5.226563-19.515626c-2.097656-7.824218-11.882812-10.449218-17.609375-4.71875l-14.285156 14.285157c-5.730469 5.730469-3.109375 15.515625 4.71875 17.609375l19.511719 5.230468c7.828125 2.097657 14.988281-5.066406 12.890625-12.890624zm0 0" fill="#d8d4ce"/><path d="m366.722656 69.214844c-.226562 0-.460937-.03125-.699218-.097656l-19.515626-5.230469c-1.21875-.324219-1.640624-1.253907-1.777343-1.78125-.140625-.523438-.246094-1.535157.648437-2.429688l14.285156-14.285156c.496094-.496094 1.078126-.746094 1.738282-.746094.203125 0 1.988281.054688 2.476562 1.875l5.226563 19.511719c.214843.796875.074219 1.527344-.414063 2.164062-.488281.640626-1.226562 1.019532-1.96875 1.019532zm0 0" fill="#f2efea"/><path d="m422.582031 45.640625-5.226562-19.511719c-2.097657-7.828125-11.882813-10.449218-17.609375-4.71875l-14.285156 14.28125c-5.730469 5.730469-3.109376 15.515625 4.71875 17.613282l19.511718 5.226562c7.828125 2.097656 14.992188-5.0625 12.890625-12.890625zm0 0" fill="#d8d4ce"/><path d="m412.464844 50.894531c-.222656 0-.460938-.03125-.699219-.097656l-19.511719-5.226563c-1.222656-.328124-1.640625-1.257812-1.78125-1.78125-.140625-.527343-.242187-1.539062.652344-2.433593l14.28125-14.285157c.496094-.496093 1.082031-.742187 1.742188-.742187.199218 0 1.984374.050781 2.472656 1.871094l5.226562 19.511719c.214844.796874.074219 1.527343-.414062 2.167968-.488282.636719-1.222656 1.015625-1.96875 1.015625zm0 0" fill="#f2efea"/><path d="m468.328125 27.320312-5.230469-19.511718c-2.097656-7.8281252-11.878906-10.449219-17.609375-4.71875l-14.285156 14.285156c-5.730469 5.730469-3.105469 15.511719 4.71875 17.609375l19.511719 5.230469c7.828125 2.09375 14.992187-5.066406 12.894531-12.894532zm0 0" fill="#d8d4ce"/><path d="m458.207031 32.574219c-.222656 0-.460937-.03125-.699219-.097657l-19.511718-5.226562c-1.222656-.328125-1.640625-1.257812-1.78125-1.78125-.140625-.527344-.242188-1.539062.652344-2.433594l14.285156-14.285156c.492187-.496094 1.078125-.742188 1.738281-.742188.203125 0 1.984375.050782 2.472656 1.871094l5.230469 19.511719c.210938.796875.074219 1.527344-.417969 2.167969-.488281.636718-1.222656 1.015625-1.96875 1.015625zm0 0" fill="#f2efea"/><path d="m404.316406 88.617188c0 5.765624-4.671875 10.4375-10.433594 10.4375-5.765624 0-10.433593-4.671876-10.433593-10.4375 0-5.761719 4.667969-10.433594 10.433593-10.433594 5.761719 0 10.433594 4.671875 10.433594 10.433594zm0 0" fill="#2f373b"/><path d="m443.640625 73.613281c0 5.761719-4.671875 10.433594-10.433594 10.433594s-10.433593-4.671875-10.433593-10.433594c0-5.765625 4.671874-10.433593 10.433593-10.433593s10.433594 4.667968 10.433594 10.433593zm0 0" fill="#2f373b"/><path d="m482.964844 58.605469c0 5.761719-4.671875 10.433593-10.433594 10.433593s-10.433594-4.671874-10.433594-10.433593c0-5.765625 4.671875-10.4375 10.433594-10.4375s10.433594 4.671875 10.433594 10.4375zm0 0" fill="#2f373b"/><path d="m212.617188 330.199219c-4.367188 4.355469-11.441407 4.355469-15.8125 0 .160156.15625.304687.300781.453124.46875.132813.15625.28125.324219.40625.492187.207032.25.394532.523438.585938.78125 2.863281 4.347656 2.382812 10.242188-1.445312 14.054688-.980469.992187-2.109376 1.746094-3.308594 2.289062v.011719c-4.117188 1.828125-9.113282 1.074219-12.488282-2.300781.304688.304687.59375.628906.855469.960937.210938.253907.398438.523438.574219.796875 2.863281 4.335938 2.394531 10.226563-1.429688 14.042969-.980468.992187-2.109374 1.742187-3.3125 2.296875-4.117187 1.839844-9.113281 1.078125-12.488281-2.296875 4.371094 4.367187 4.371094 11.441406 0 15.808594-4.367187 4.355469-11.441406 4.355469-15.796875 0l-148.0625-148.0625c3.5625-34.648438 14.023438-67.25 30.011719-96.402344l181.257813 181.257813c4.355468 4.359374 4.355468 11.433593 0 15.800781zm0 0" fill="#f4c0a3"/><path d="m212.617188 330.199219c-1.078126 1.074219-2.320313 1.878906-3.648438 2.433593 1.660156-4.054687.855469-8.871093-2.433594-12.164062l-179.355468-179.367188c1.347656-2.683593 2.734374-5.339843 4.179687-7.960937l181.257813 181.257813c4.355468 4.359374 4.355468 11.433593 0 15.800781zm0 0" fill="#eb927a"/><path d="m193.496094 348.289062c1.492187-3.972656.636718-8.617187-2.558594-11.8125l-.65625-.65625c-1.679688-1.679687-1.679688-4.402343-.003906-6.078124.839844-.839844 1.933594-1.257813 3.035156-1.257813s2.207031.421875 3.042969 1.257813l.457031.453124c.152344.15625.296875.3125.4375.46875.144531.164063.285156.324219.414062.492188.207032.257812.394532.523438.578126.792969 2.863281 4.335937 2.386718 10.230469-1.433594 14.046875-.984375.992187-2.109375 1.75-3.3125 2.292968zm0 0" fill="#eb927a"/><path d="m177.695312 364.089844c1.492188-3.972656.636719-8.621094-2.558593-11.8125l-.65625-.65625c-1.679688-1.679688-1.679688-4.402344-.003907-6.078125.839844-.839844 1.933594-1.257813 3.035157-1.257813 1.101562 0 2.207031.417969 3.042969 1.257813l.457031.453125c.300781.304687.585937.628906.851562.960937.207031.257813.394531.523438.578125.792969 2.863282 4.335938 2.386719 10.230469-1.433594 14.046875-.988281.988281-2.109374 1.746094-3.3125 2.292969zm0 0" fill="#eb927a"/><path d="m161.894531 379.890625c1.492188-3.972656.636719-8.621094-2.558593-11.8125l-.65625-.65625c-1.675782-1.679687-1.675782-4.402344-.003907-6.078125.839844-.839844 1.933594-1.257812 3.035157-1.257812 1.101562 0 2.207031.417968 3.046874 1.257812l.453126.453125c.304687.304687.585937.628906.851562.960937.210938.257813.398438.523438.578125.792969 2.863281 4.335938 2.386719 10.230469-1.433594 14.046875-.984375.988282-2.109375 1.746094-3.3125 2.292969zm0 0" fill="#eb927a"/><path d="m346.476562 158.367188 44.460938 44.460937-63.207031 63.207031-44.460938-44.460937c-4.359375-4.363281-4.359375-11.4375 0-15.800781 4.363281-4.363282 11.4375-4.363282 15.800781 0-.152343-.152344-.296874-.308594-.4375-.46875-.144531-.164063-.285156-.320313-.414062-.492188-.207031-.253906-.398438-.519531-.578125-.789062-2.863281-4.339844-2.386719-10.230469 1.433594-14.050782.988281-.988281 2.113281-1.746094 3.3125-2.292968-.003907-.003907-.003907-.003907.007812-.003907 4.109375-1.832031 9.105469-1.074219 12.480469 2.296875-.304688-.304687-.589844-.625-.855469-.960937-.207031-.253907-.394531-.519531-.578125-.789063-2.863281-4.339844-2.382812-10.234375 1.433594-14.050781.988281-.988281 2.113281-1.746094 3.316406-2.292969 4.109375-1.839844 9.109375-1.078125 12.484375 2.292969-4.363281-4.359375-4.363281-11.4375.003907-15.804687 4.359374-4.363282 11.433593-4.363282 15.796874 0zm0 0" fill="#f4c0a3"/><path d="m286.917969 203.34375c-1.671875 4.042969-.859375 8.867188 2.425781 12.15625l44.460938 44.460938-6.074219 6.074218-44.460938-44.460937c-4.363281-4.363281-4.363281-11.4375 0-15.800781 1.078125-1.074219 2.320313-1.886719 3.648438-2.429688zm0 0" fill="#eb927a"/><path d="m302.386719 187.679688c-1.492188 3.972656-.636719 8.621093 2.558593 11.816406l.65625.65625c1.679688 1.679687 1.679688 4.398437.003907 6.074218-.839844.839844-1.933594 1.261719-3.035157 1.261719-1.101562 0-2.207031-.421875-3.046874-1.261719l-.453126-.453124c-.152343-.152344-.296874-.308594-.4375-.46875-.144531-.164063-.285156-.320313-.414062-.492188-.207031-.253906-.398438-.519531-.578125-.789062-2.863281-4.339844-2.386719-10.230469 1.433594-14.050782.984375-.988281 2.109375-1.746094 3.3125-2.292968zm0 0" fill="#eb927a"/><path d="m318.1875 171.878906c-1.492188 3.972656-.636719 8.621094 2.558594 11.816406l.65625.65625c1.679687 1.679688 1.679687 4.398438.003906 6.074219-.839844.839844-1.933594 1.261719-3.035156 1.261719-1.101563 0-2.207032-.421875-3.042969-1.261719l-.457031-.453125c-.300782-.304687-.585938-.625-.851563-.960937-.207031-.253907-.398437-.519531-.578125-.789063-2.863281-4.339844-2.386718-10.234375 1.433594-14.050781.984375-.988281 2.109375-1.746094 3.3125-2.292969zm0 0" fill="#eb927a"/><path d="m333.988281 156.078125c-1.492187 3.972656-.636719 8.621094 2.558594 11.816406l.652344.65625c1.679687 1.679688 1.679687 4.398438.007812 6.074219-.839843.839844-1.9375 1.261719-3.035156 1.257812-1.101563 0-2.207031-.417968-3.046875-1.257812l-.453125-.453125c-.304687-.304687-.585937-.625-.851563-.960937-.210937-.253907-.398437-.519532-.582031-.789063-2.859375-4.339844-2.382812-10.234375 1.433594-14.050781.988281-.988282 2.113281-1.746094 3.316406-2.292969zm0 0" fill="#eb927a"/></svg>